<mxfile host="65bd71144e">
    <diagram id="Wd_m9EPcAW6MYaU8aCy-" name="Page-1">
        <mxGraphModel dx="1130" dy="825" grid="1" gridSize="10" guides="1" tooltips="1" connect="1" arrows="1" fold="1" page="1" pageScale="1" pageWidth="850" pageHeight="1100" math="0" shadow="0">
            <root>
                <mxCell id="0"/>
                <mxCell id="1" parent="0"/>
                <mxCell id="6" style="edgeStyle=entityRelationEdgeStyle;html=1;startArrow=none;endArrow=none;segment=10;curved=1;sourcePerimeterSpacing=0;targetPerimeterSpacing=0;" edge="1" parent="1" source="2">
                    <mxGeometry relative="1" as="geometry">
                        <mxPoint x="560" y="380" as="targetPoint"/>
                    </mxGeometry>
                </mxCell>
                <mxCell id="2" value="main" style="whiteSpace=wrap;html=1;shape=partialRectangle;top=0;left=0;bottom=1;right=0;points=[[0,1],[1,1]];fillColor=none;align=center;verticalAlign=bottom;routingCenterY=0.5;snapToPoint=1;recursiveResize=0;autosize=1;treeFolding=1;treeMoving=1;newEdgeStyle={&quot;edgeStyle&quot;:&quot;entityRelationEdgeStyle&quot;,&quot;startArrow&quot;:&quot;none&quot;,&quot;endArrow&quot;:&quot;none&quot;,&quot;segment&quot;:10,&quot;curved&quot;:1,&quot;sourcePerimeterSpacing&quot;:0,&quot;targetPerimeterSpacing&quot;:0};" vertex="1" parent="1">
                    <mxGeometry x="285" y="350" width="70" height="30" as="geometry"/>
                </mxCell>
                <mxCell id="3" value="" style="edgeStyle=entityRelationEdgeStyle;startArrow=none;endArrow=none;segment=10;curved=1;sourcePerimeterSpacing=0;targetPerimeterSpacing=0;" edge="1" target="2" parent="1">
                    <mxGeometry relative="1" as="geometry">
                        <mxPoint x="240" y="400" as="sourcePoint"/>
                    </mxGeometry>
                </mxCell>
                <mxCell id="4" value="GitHub" style="whiteSpace=wrap;html=1;aspect=fixed;" vertex="1" parent="1">
                    <mxGeometry x="160" y="380" width="80" height="80" as="geometry"/>
                </mxCell>
                <mxCell id="7" value="" style="shape=image;verticalLabelPosition=bottom;labelBackgroundColor=default;verticalAlign=top;aspect=fixed;imageAspect=0;image=https://cdn-icons-png.flaticon.com/512/25/25231.png;" vertex="1" parent="1">
                    <mxGeometry x="170" y="390" width="60" height="60" as="geometry"/>
                </mxCell>
                <mxCell id="10" style="edgeStyle=entityRelationEdgeStyle;html=1;startArrow=none;endArrow=none;segment=10;curved=1;sourcePerimeterSpacing=0;targetPerimeterSpacing=0;fillColor=#1ba1e2;strokeColor=#006EAF;" edge="1" parent="1" source="8">
                    <mxGeometry relative="1" as="geometry">
                        <mxPoint x="530" y="380" as="targetPoint"/>
                    </mxGeometry>
                </mxCell>
                <mxCell id="15" style="edgeStyle=entityRelationEdgeStyle;html=1;startArrow=none;endArrow=none;segment=10;curved=1;sourcePerimeterSpacing=0;targetPerimeterSpacing=0;exitX=1;exitY=1;exitDx=0;exitDy=0;fillColor=#1ba1e2;strokeColor=#006EAF;" edge="1" parent="1" source="8">
                    <mxGeometry relative="1" as="geometry">
                        <mxPoint x="550" y="430" as="targetPoint"/>
                    </mxGeometry>
                </mxCell>
                <mxCell id="8" value="Pre-Production" style="whiteSpace=wrap;html=1;shape=partialRectangle;top=0;left=0;bottom=1;right=0;points=[[0,1],[1,1]];fillColor=none;align=center;verticalAlign=bottom;routingCenterY=0.5;snapToPoint=1;recursiveResize=0;autosize=1;treeFolding=1;treeMoving=1;newEdgeStyle={&quot;edgeStyle&quot;:&quot;entityRelationEdgeStyle&quot;,&quot;startArrow&quot;:&quot;none&quot;,&quot;endArrow&quot;:&quot;none&quot;,&quot;segment&quot;:10,&quot;curved&quot;:1,&quot;sourcePerimeterSpacing&quot;:0,&quot;targetPerimeterSpacing&quot;:0};" vertex="1" parent="1">
                    <mxGeometry x="338" y="400" width="120" height="30" as="geometry"/>
                </mxCell>
                <mxCell id="9" value="" style="edgeStyle=entityRelationEdgeStyle;startArrow=none;endArrow=none;segment=10;curved=1;sourcePerimeterSpacing=0;targetPerimeterSpacing=0;" edge="1" target="8" parent="1">
                    <mxGeometry relative="1" as="geometry">
                        <mxPoint x="240" y="430" as="sourcePoint"/>
                    </mxGeometry>
                </mxCell>
                <mxCell id="14" style="edgeStyle=entityRelationEdgeStyle;html=1;startArrow=none;endArrow=none;segment=10;curved=1;sourcePerimeterSpacing=0;targetPerimeterSpacing=0;entryX=1;entryY=1;entryDx=0;entryDy=0;fillColor=#60a917;strokeColor=#2D7600;" edge="1" parent="1" target="8">
                    <mxGeometry relative="1" as="geometry">
                        <mxPoint x="520" y="490" as="targetPoint"/>
                        <mxPoint x="390" y="490" as="sourcePoint"/>
                    </mxGeometry>
                </mxCell>
                <mxCell id="16" style="edgeStyle=entityRelationEdgeStyle;html=1;startArrow=none;endArrow=none;segment=10;curved=1;sourcePerimeterSpacing=0;targetPerimeterSpacing=0;exitX=1;exitY=1;exitDx=0;exitDy=0;fillColor=#60a917;strokeColor=#2D7600;" edge="1" parent="1" source="11">
                    <mxGeometry relative="1" as="geometry">
                        <mxPoint x="520" y="490" as="targetPoint"/>
                    </mxGeometry>
                </mxCell>
                <mxCell id="11" value="Development" style="whiteSpace=wrap;html=1;shape=partialRectangle;top=0;left=0;bottom=1;right=0;points=[[0,1],[1,1]];fillColor=none;align=center;verticalAlign=bottom;routingCenterY=0.5;snapToPoint=1;recursiveResize=0;autosize=1;treeFolding=1;treeMoving=1;newEdgeStyle={&quot;edgeStyle&quot;:&quot;entityRelationEdgeStyle&quot;,&quot;startArrow&quot;:&quot;none&quot;,&quot;endArrow&quot;:&quot;none&quot;,&quot;segment&quot;:10,&quot;curved&quot;:1,&quot;sourcePerimeterSpacing&quot;:0,&quot;targetPerimeterSpacing&quot;:0};" vertex="1" parent="1">
                    <mxGeometry x="275" y="460" width="110" height="30" as="geometry"/>
                </mxCell>
                <mxCell id="12" value="" style="edgeStyle=entityRelationEdgeStyle;startArrow=none;endArrow=none;segment=10;curved=1;sourcePerimeterSpacing=0;targetPerimeterSpacing=0;" edge="1" target="11" parent="1">
                    <mxGeometry relative="1" as="geometry">
                        <mxPoint x="240" y="460" as="sourcePoint"/>
                    </mxGeometry>
                </mxCell>
            </root>
        </mxGraphModel>
    </diagram>
</mxfile>